<svg width="500" height="113" viewBox="0 0 500 113" fill="none" xmlns="http://www.w3.org/2000/svg">
<path d="M28.9198 75.6C34.2798 75.6 38.1198 74.6 40.4398 72.6C42.8398 70.6 44.0398 67.84 44.0398 64.32C44.0398 62.4 43.6798 60.76 42.9598 59.4C42.2398 58.04 40.9198 56.8 38.9998 55.68C37.1598 54.48 34.4398 53.32 30.8398 52.2L22.7998 49.68C15.7598 47.44 10.6798 44.48 7.55982 40.8C4.43982 37.12 2.87983 32.44 2.87983 26.76C2.87983 22.92 3.91983 19.36 5.99983 16.08C8.07982 12.8 11.1998 10.16 15.3598 8.16001C19.5198 6.16001 24.6798 5.16001 30.8398 5.16001C35.2398 5.16001 39.2398 5.48001 42.8398 6.12001C46.5198 6.68001 50.5998 7.52001 55.0798 8.64001L53.1598 20.16C48.3598 18.8 44.0798 17.84 40.3198 17.28C36.6398 16.64 33.3998 16.32 30.5998 16.32C25.4798 16.32 21.8398 17.24 19.6798 19.08C17.5198 20.84 16.4398 23.04 16.4398 25.68C16.4398 27.6 16.7998 29.32 17.5198 30.84C18.2398 32.28 19.5198 33.6 21.3598 34.8C23.2798 36 25.9998 37.16 29.5198 38.28L37.7998 40.92C44.9998 43.08 50.1198 45.88 53.1598 49.32C56.1998 52.68 57.7198 57.36 57.7198 63.36C57.7198 68 56.5998 72.08 54.3598 75.6C52.1198 79.12 48.8398 81.88 44.5198 83.88C40.2798 85.88 34.9998 86.88 28.6798 86.88C24.2798 86.88 19.7598 86.4 15.1198 85.44C10.4798 84.48 5.43982 83.08 -0.000175416 81.24L2.87983 69.72C8.23982 71.64 13.0798 73.12 17.3998 74.16C21.7998 75.12 25.6398 75.6 28.9198 75.6ZM90.0308 7.62939e-06V85.2H76.5908V7.62939e-06H90.0308ZM88.2308 52.8L86.3108 42.6C90.2308 38.92 93.6708 36 96.6308 33.84C99.5908 31.6 102.391 30.04 105.031 29.16C107.671 28.2 110.311 27.72 112.951 27.72C118.631 27.72 122.831 29.32 125.551 32.52C128.271 35.72 129.631 40.28 129.631 46.2V85.2H116.191V48.6C116.191 45.8 115.591 43.72 114.391 42.36C113.191 40.92 111.231 40.2 108.511 40.2C106.831 40.2 105.071 40.64 103.231 41.52C101.391 42.32 99.2708 43.64 96.8708 45.48C94.4708 47.24 91.5908 49.68 88.2308 52.8ZM176.342 87C170.502 87 165.342 85.76 160.862 83.28C156.382 80.72 152.862 77.2 150.302 72.72C147.742 68.16 146.462 62.88 146.462 56.88C146.462 51.12 147.742 46 150.302 41.52C152.942 36.96 156.542 33.4 161.102 30.84C165.662 28.2 170.902 26.88 176.822 26.88C182.662 26.88 187.822 28.16 192.302 30.72C196.782 33.28 200.302 36.84 202.862 41.4C205.422 45.88 206.702 51.08 206.702 57C206.702 62.84 205.382 68.04 202.742 72.6C200.182 77.08 196.622 80.6 192.062 83.16C187.502 85.72 182.262 87 176.342 87ZM176.582 75.84C181.462 75.84 185.382 74.28 188.342 71.16C191.302 67.96 192.782 63.24 192.782 57C192.782 53 192.102 49.6 190.742 46.8C189.462 44 187.582 41.88 185.102 40.44C182.702 38.92 179.862 38.16 176.582 38.16C173.382 38.16 170.542 38.88 168.062 40.32C165.662 41.76 163.782 43.88 162.422 46.68C161.062 49.4 160.382 52.8 160.382 56.88C160.382 62.88 161.822 67.56 164.702 70.92C167.662 74.2 171.622 75.84 176.582 75.84ZM223.653 112.8V28.68H235.173L236.733 41.04L237.093 41.16V112.8H223.653ZM256.533 27.6C260.933 27.6 264.973 28.72 268.653 30.96C272.333 33.2 275.293 36.44 277.533 40.68C279.773 44.92 280.893 50 280.893 55.92C280.893 61.84 279.653 67.08 277.173 71.64C274.773 76.12 271.493 79.64 267.333 82.2C263.253 84.68 258.653 85.92 253.533 85.92C250.173 85.92 246.813 85.2 243.453 83.76C240.173 82.32 236.613 79.4 232.773 75L232.893 66.24C235.293 68.64 237.453 70.48 239.373 71.76C241.373 72.96 243.173 73.8 244.773 74.28C246.373 74.76 247.893 75 249.333 75C253.093 75 256.293 74.2 258.933 72.6C261.573 70.92 263.573 68.72 264.933 66C266.293 63.2 266.973 60.12 266.973 56.76C266.973 53 266.293 49.8 264.933 47.16C263.573 44.44 261.733 42.36 259.413 40.92C257.093 39.4 254.453 38.64 251.493 38.64C249.733 38.64 248.013 38.92 246.333 39.48C244.733 40.04 242.973 41 241.053 42.36C239.133 43.72 236.973 45.6 234.573 48L234.693 39.12C238.293 34.96 241.773 32 245.133 30.24C248.493 28.48 252.293 27.6 256.533 27.6ZM302.404 13.56L302.524 6.60001H312.004L346.084 78.36V85.2H336.484L302.404 13.56ZM350.884 85.2H339.364L338.404 6.60001H350.884V85.2ZM309.604 85.2H297.124V6.60001H308.644L309.604 85.2ZM405.155 75.72L415.715 75.96L415.235 86.4L400.835 86.16C389.475 86 381.315 83.48 376.355 78.6C371.395 73.64 368.915 66.68 368.915 57.72C368.915 51.88 370.155 46.64 372.635 42C375.115 37.36 378.595 33.68 383.075 30.96C387.555 28.24 392.795 26.88 398.795 26.88C404.475 26.88 409.395 28.04 413.555 30.36C417.715 32.68 420.915 36 423.155 40.32C425.475 44.56 426.635 49.72 426.635 55.8C426.635 56.92 426.555 58 426.395 59.04C426.315 60 426.195 60.84 426.035 61.56H376.955V52.08H419.915L413.675 54.24C413.675 48.56 412.315 44.32 409.595 41.52C406.955 38.64 403.395 37.2 398.915 37.2C395.635 37.2 392.715 37.96 390.155 39.48C387.595 41 385.555 43.24 384.035 46.2C382.595 49.16 381.875 52.76 381.875 57C381.875 61.32 382.595 64.84 384.035 67.56C385.475 70.2 387.875 72.16 391.235 73.44C394.675 74.72 399.315 75.48 405.155 75.72ZM459.665 62.88V40.08H441.425V28.68H459.785V8.52001H472.865V28.68H496.625V40.08H473.105V61.2C473.105 64.24 473.385 66.64 473.945 68.4C474.505 70.16 475.545 71.44 477.065 72.24C478.585 72.96 480.705 73.4 483.425 73.56L499.745 74.52L498.785 86.04L480.305 85.2C474.865 84.88 470.625 84.04 467.585 82.68C464.625 81.32 462.545 79.08 461.345 75.96C460.225 72.76 459.665 68.4 459.665 62.88Z" fill="black"/>
</svg>
